<?xml version="1.0" standalone="no"?>
<!DOCTYPE svg PUBLIC "-//W3C//DTD SVG 20010904//EN"
 "http://www.w3.org/TR/2001/REC-SVG-20010904/DTD/svg10.dtd">
<svg version="1.0" xmlns="http://www.w3.org/2000/svg"
 width="300.000000pt" height="300.000000pt" viewBox="0 0 300.000000 300.000000"
 preserveAspectRatio="xMidYMid meet">
<metadata>
Created by potrace 1.16, written by Peter Selinger 2001-2019
</metadata>
<g transform="translate(0.000000,300.000000) scale(0.100000,-0.100000)"
fill="#000000" stroke="none">
<path d="M0 1500 l0 -1500 1500 0 1500 0 0 1500 0 1500 -1500 0 -1500 0 0
-1500z m1675 740 c121 -12 239 -32 328 -57 l57 -16 0 -266 c0 -255 -10 -396
-40 -561 -31 -173 -143 -341 -324 -490 -78 -63 -179 -130 -196 -130 -26 0
-201 131 -281 210 -193 191 -242 318 -268 690 -12 158 -14 491 -5 527 7 26 54
43 192 68 177 32 365 41 537 25z"/>
<path d="M1265 2169 c-90 -13 -175 -29 -219 -40 l-38 -10 5 -297 c3 -216 9
-326 22 -402 17 -104 34 -159 35 -114 0 12 18 58 40 102 29 57 57 95 97 132
65 60 99 78 230 126 136 49 180 97 153 168 -8 22 -259 350 -264 345 0 -1 -28
-5 -61 -10z"/>
<path d="M1780 2155 c0 -3 21 -33 46 -67 122 -164 142 -322 62 -486 -41 -83
-131 -168 -218 -204 -36 -15 -99 -41 -141 -58 -42 -17 -86 -41 -98 -54 -27
-28 -44 -95 -35 -134 5 -21 146 -302 160 -321 7 -8 121 85 191 155 129 129
188 240 218 413 39 224 43 714 6 725 -28 9 -162 36 -177 36 -8 0 -14 -2 -14
-5z"/>
</g>
</svg>
